<svg width="400" height="400" viewBox="0 0 400 400" fill="none" xmlns="http://www.w3.org/2000/svg">
<circle cx="200" cy="200" r="200" fill="#E5E5E5"/>
<rect x="147.672" y="193.078" width="120" height="25" rx="12.5" transform="rotate(19.2262 147.672 193.078)" fill="#C4C4C4"/>
<rect x="146.643" y="162.857" width="120" height="25" rx="12.5" transform="rotate(17.3044 146.643 162.857)" fill="#C4C4C4"/>
<path d="M210.669 246.781C211.108 243.848 213.681 242.003 216.449 240.939C223.022 238.412 234.961 233.067 241.829 229.951C245.082 228.475 248.87 228.826 251.788 230.887L254.317 232.674C260.499 237.042 259.776 246.428 252.997 249.797L238.05 257.225C234.65 258.914 232.5 262.383 232.5 266.18L232.5 275.483C232.5 281.006 228.023 285.483 222.5 285.483L219.825 285.483C214.134 285.483 209.532 280.743 209.579 275.052C209.658 265.277 209.691 253.313 210.669 246.781Z" fill="white"/>
<path d="M196.152 247.781C195.713 244.848 193.14 243.003 190.372 241.939C183.799 239.412 171.86 234.067 164.992 230.951C161.739 229.475 157.951 229.826 155.033 231.887L152.504 233.674C146.322 238.042 147.045 247.428 153.824 250.797L168.771 258.225C172.171 259.914 174.321 263.383 174.321 267.18L174.321 276.483C174.321 282.006 178.798 286.483 184.321 286.483L186.996 286.483C192.687 286.483 197.289 281.743 197.242 276.052C197.163 266.277 197.13 254.313 196.152 247.781Z" fill="#C4C4C4"/>
<rect x="199.648" y="145.341" width="64.1262" height="25" rx="12.5" transform="rotate(20.2382 199.648 145.341)" fill="#C4C4C4"/>
<rect x="142" y="230.812" width="120" height="25" rx="12.5" transform="rotate(-19.7098 142 230.812)" fill="white"/>
<rect x="139" y="200.812" width="120" height="25" rx="12.5" transform="rotate(-19.7098 139 200.812)" fill="white"/>
<rect x="139" y="170.812" width="78.7461" height="25" rx="12.5" transform="rotate(-19.7098 139 170.812)" fill="white"/>
<rect x="193" y="114" width="50" height="15" rx="7.5" transform="rotate(-90 193 114)" fill="white"/>
<rect x="266" y="130.45" width="50" height="15" rx="7.5" transform="rotate(-60 266 130.45)" fill="white"/>
<rect x="120.373" y="142.95" width="50" height="15" rx="7.5" transform="rotate(-120 120.373 142.95)" fill="white"/>
<rect x="304" y="195.195" width="50" height="15" rx="7.5" transform="rotate(-15 304 195.195)" fill="white"/>
<rect width="50" height="15" rx="7.5" transform="matrix(-0.965926 -0.258819 -0.258819 0.965926 95.1786 192.848)" fill="white"/>
<rect x="173" y="270.254" width="60" height="39" rx="10" fill="white"/>
<rect x="173" y="276.254" width="60" height="45" rx="20" fill="white"/>
<rect x="184" y="300.254" width="38" height="29" rx="5" fill="white"/>
<rect x="173" y="285.254" width="60" height="5" fill="#C4C4C4"/>
</svg>
